# xmcd
#
# Track frame offsets: 
#        151
#        14340
#        30822
#        48322
#        62270
#        80044
#        96080
#        108194
#        121205
#        132545
#        146361
#        157475
#
# Disc length: 2573 seconds
#
# Revision: 0
# Processed by: cddbd v1.5.2PL0 Copyright (c) Steve Scherf et al.
# Submitted via: ExactAudioCopyFreeDBPlugin 1.0
#
DISCID=970a0b0c
DTITLE=Mauro Ferrarese - Wounds, Wine and Words
DYEAR=1900
DGENRE=Blues
TTITLE0=Frontdoor Blues
TTITLE1=Soul Train
TTITLE2=She Said
TTITLE3=Blue Partner
TTITLE4=1 Thing
TTITLE5=I Can't
TTITLE6=26th April
TTITLE7=GTR Man
TTITLE8=Heaven
TTITLE9=We're All Alive
TTITLE10=Earthquake
TTITLE11=Santo Cielo
EXTD=
EXTT0=
EXTT1=
EXTT2=
EXTT3=
EXTT4=
EXTT5=
EXTT6=
EXTT7=
EXTT8=
EXTT9=
EXTT10=
EXTT11=
PLAYORDER=
